<svg
  version="1.1"
  xmlns="http://www.w3.org/2000/svg"
  xmlns:xlink="http://www.w3.org/1999/xlink"
  x="0px"
  y="0px"
  viewBox="0 0 90 90"
  style="enable-background:new 0 0 90 90;"
  xml:space="preserve"
>
<path
  style="fill:#108632;"
  d="M66,45.022c0,4.468-0.442,8.541-1.326,12.219c-0.884,3.678-2.225,6.835-4.023,9.471
    c-1.798,2.636-4.031,4.676-6.698,6.121C51.285,74.278,48.154,75,44.558,75c-3.095,0-5.909-0.588-8.444-1.765
    c-2.535-1.176-4.701-2.986-6.499-5.428c-1.798-2.442-3.183-5.555-4.156-9.337C24.486,54.687,24,50.205,24,45.022
    c0-4.468,0.449-8.548,1.348-12.241c0.899-3.693,2.24-6.858,4.023-9.494c1.783-2.636,4.016-4.676,6.698-6.121
    C38.752,15.722,41.876,15,45.442,15c3.095,0,5.909,0.588,8.444,1.765c2.535,1.177,4.701,2.993,6.499,5.45
    c1.798,2.457,3.183,5.577,4.156,9.36C65.514,35.357,66,39.84,66,45.022L66,45.022z M58.219,45.29c0-1.013-0.037-2.018-0.111-3.016
    c-0.074-0.998-0.155-1.973-0.243-2.926L33.417,57.71c0.442,1.549,1.002,2.978,1.68,4.289c0.678,1.311,1.496,2.435,2.454,3.373
    c0.958,0.938,2.048,1.668,3.272,2.189c1.223,0.521,2.616,0.782,4.178,0.782c2.004,0,3.824-0.491,5.46-1.474
    c1.636-0.983,3.028-2.442,4.178-4.378c1.149-1.936,2.034-4.341,2.653-7.215C57.909,52.401,58.219,49.073,58.219,45.29L58.219,45.29z
    M31.781,44.754c0,0.923,0.007,1.847,0.022,2.77c0.015,0.923,0.066,1.817,0.155,2.681l24.448-18.272
    c-0.442-1.519-1.002-2.904-1.68-4.155c-0.678-1.251-1.488-2.331-2.432-3.239c-0.943-0.908-2.019-1.616-3.227-2.122
    c-1.208-0.506-2.564-0.759-4.067-0.759c-2.004,0-3.824,0.491-5.46,1.474c-1.636,0.983-3.028,2.45-4.178,4.401
    c-1.149,1.951-2.034,4.363-2.653,7.238C32.09,37.643,31.781,40.972,31.781,44.754L31.781,44.754z"
  />
</svg>
