<?xml version="1.0" standalone="no"?>
<!DOCTYPE svg PUBLIC "-//W3C//DTD SVG 20010904//EN"
 "http://www.w3.org/TR/2001/REC-SVG-20010904/DTD/svg10.dtd">
<svg version="1.0" xmlns="http://www.w3.org/2000/svg"
 width="700.000000pt" height="700.000000pt" viewBox="0 0 700.000000 700.000000"
 preserveAspectRatio="xMidYMid meet">
<metadata>
Created by potrace 1.11, written by Peter Selinger 2001-2013
</metadata>
<g transform="translate(0.000000,700.000000) scale(0.100000,-0.100000)"
fill="#000000" stroke="none">
<path d="M3316 5823 c-2 -3 -21 -6 -42 -9 -22 -2 -51 -7 -66 -10 -15 -3 -30
-5 -33 -5 -2 0 -42 -11 -87 -23 -454 -126 -812 -473 -1004 -974 -14 -37 -30
-76 -35 -87 -12 -30 -77 -248 -82 -281 -3 -16 -10 -49 -16 -74 -11 -51 -21
-101 -26 -143 -2 -16 -6 -40 -9 -55 -3 -15 -8 -47 -11 -72 -4 -25 -8 -56 -10
-70 -4 -28 -16 -160 -21 -235 -4 -74 -5 -543 0 -595 2 -25 7 -88 11 -140 3
-52 8 -108 10 -125 32 -235 42 -296 65 -385 5 -19 16 -66 25 -105 38 -156 131
-395 205 -530 268 -484 703 -736 1275 -736 518 -1 914 192 1214 591 73 98 171
270 216 380 14 36 32 79 40 95 30 66 97 305 121 433 2 12 6 34 9 50 14 70 25
142 30 192 4 30 8 62 10 70 2 8 7 53 10 100 4 47 9 105 11 130 4 56 4 550 0
605 -2 22 -7 82 -11 133 -3 51 -8 101 -10 110 -2 10 -6 43 -9 73 -8 72 -15
119 -21 149 -3 14 -8 41 -11 60 -26 150 -105 425 -159 555 -36 87 -119 244
-170 320 -94 141 -181 235 -337 361 -75 60 -278 159 -388 190 -80 21 -190 45
-259 54 -75 10 -425 12 -435 3z m314 -516 c14 -3 43 -8 65 -12 62 -11 183 -64
255 -111 134 -88 254 -232 337 -404 31 -65 82 -199 89 -236 6 -34 4 -35 -401
-334 -55 -41 -102 -77 -105 -80 -3 -3 -21 -17 -40 -30 -19 -14 -42 -30 -50
-37 -8 -6 -76 -57 -150 -112 -74 -55 -139 -104 -145 -108 -5 -5 -122 -91 -258
-193 -136 -102 -307 -230 -381 -285 -73 -55 -148 -111 -167 -125 -19 -13 -38
-28 -44 -32 -67 -56 -142 -105 -150 -97 -19 18 -10 776 10 881 3 11 7 46 10
77 4 31 8 63 10 71 3 8 7 33 11 55 36 242 120 481 245 695 100 173 286 325
469 385 104 34 293 50 390 32z m874 -1422 c17 -164 20 -221 20 -415 0 -195 -8
-404 -19 -455 -2 -11 -7 -47 -10 -80 -6 -51 -16 -114 -40 -234 -2 -13 -14 -60
-25 -105 -139 -540 -430 -858 -825 -904 -316 -36 -593 83 -778 333 -68 93
-154 262 -197 390 l-31 90 33 28 c18 16 96 75 173 133 77 58 147 110 155 117
8 7 31 23 50 37 19 14 42 30 50 37 8 7 150 114 315 237 165 124 311 233 324
243 193 147 796 599 798 599 1 -1 4 -24 7 -51z"/>
</g>
</svg>
